<svg xmlns="http://www.w3.org/2000/svg" xmlns:xlink="http://www.w3.org/1999/xlink" width="1080" zoomAndPan="magnify" viewBox="0 0 810 809.999993" height="1080" preserveAspectRatio="xMidYMid meet" version="1.0"><defs><clipPath id="c1d12f6603"><path d="M 303 357 L 507 357 L 507 538.855469 L 303 538.855469 Z M 303 357 " clip-rule="nonzero"/></clipPath></defs><path fill="#f6b95f" d="M 382.746094 365.117188 C 382.972656 364.566406 383.226562 364.023438 383.53125 363.511719 C 384.4375 361.988281 385.671875 360.539062 387.117188 359.507812 C 387.371094 359.328125 387.703125 359.097656 388.054688 358.949219 C 388.292969 358.847656 388.542969 358.757812 388.765625 358.832031 C 388.820312 358.847656 388.785156 358.914062 388.785156 358.96875 C 388.78125 359.085938 388.757812 359.210938 388.726562 359.339844 C 388.585938 359.898438 388.277344 360.480469 388.148438 360.746094 C 386.933594 363.320312 384.890625 364.902344 383.164062 367.027344 C 382.765625 367.515625 383.097656 367.898438 383.171875 367.984375 C 383.285156 368.117188 383.511719 368.300781 383.894531 368.203125 C 383.9375 368.195312 384.027344 368.164062 384.136719 368.097656 C 384.164062 368.078125 384.203125 368.054688 384.242188 368.027344 C 384.128906 368.121094 384.042969 368.253906 384.007812 368.410156 C 383.914062 368.796875 384.152344 369.183594 384.539062 369.277344 C 385.917969 369.605469 387.613281 370.179688 389.179688 370.347656 C 390.367188 370.472656 391.484375 370.359375 392.390625 369.839844 C 393.605469 369.144531 394.632812 367.941406 394.042969 366.449219 C 393.527344 365.152344 392.488281 364.527344 391.25 364.332031 C 389.871094 364.117188 388.230469 364.472656 386.996094 364.902344 C 387.929688 363.851562 388.800781 362.738281 389.453125 361.363281 C 389.675781 360.886719 390.289062 359.617188 390.214844 358.757812 C 390.160156 358.144531 389.863281 357.667969 389.203125 357.460938 C 388.757812 357.316406 388.273438 357.351562 387.792969 357.507812 C 387.230469 357.695312 386.679688 358.050781 386.28125 358.335938 C 384.726562 359.449219 383.382812 360.988281 382.386719 362.621094 C 382.359375 362.296875 382.320312 361.972656 382.273438 361.644531 C 382.007812 359.792969 381.589844 357.765625 380.390625 356.265625 C 379.429688 355.066406 377.824219 354.554688 376.660156 355.867188 C 375.765625 356.882812 375.492188 358.316406 375.625 359.84375 C 375.808594 361.921875 376.734375 364.171875 377.492188 365.515625 C 378.074219 366.542969 378.777344 367.292969 379.257812 367.917969 C 379.5 368.234375 379.949219 368.296875 380.265625 368.054688 C 380.582031 367.8125 380.640625 367.359375 380.398438 367.042969 C 379.953125 366.460938 379.289062 365.761719 378.746094 364.808594 C 378.0625 363.597656 377.222656 361.582031 377.058594 359.71875 C 376.964844 358.613281 377.089844 357.554688 377.738281 356.824219 C 378.222656 356.273438 378.867188 356.664062 379.265625 357.164062 C 380.308594 358.46875 380.617188 360.242188 380.847656 361.851562 C 380.96875 362.664062 381.023438 363.476562 381.015625 364.296875 C 381.015625 364.351562 380.984375 366.3125 381.007812 366.695312 C 381.03125 367.050781 381.21875 367.214844 381.25 367.246094 C 381.476562 367.457031 381.722656 367.476562 381.960938 367.398438 C 382.078125 367.363281 382.320312 367.25 382.445312 366.90625 C 382.542969 366.636719 382.71875 365.328125 382.746094 365.117188 Z M 384.351562 367.949219 C 384.503906 367.863281 384.691406 367.832031 384.875 367.875 C 386.195312 368.191406 387.824219 368.753906 389.332031 368.914062 C 390.191406 369.007812 391.015625 368.96875 391.675781 368.589844 C 391.972656 368.417969 392.265625 368.210938 392.484375 367.960938 C 392.714844 367.691406 392.855469 367.367188 392.703125 366.980469 C 392.3125 365.984375 391.371094 365.710938 390.375 365.707031 C 389.167969 365.699219 387.859375 366.089844 386.960938 366.453125 C 386.300781 366.722656 385.691406 367.09375 385.085938 367.46875 C 384.878906 367.597656 384.671875 367.734375 384.46875 367.867188 C 384.441406 367.886719 384.398438 367.917969 384.351562 367.949219 Z M 384.351562 367.949219 " fill-opacity="1" fill-rule="evenodd"/><path fill="#ea7992" d="M 339.3125 401.246094 C 339.3125 401.246094 378.746094 364.285156 382.820312 364.960938 C 386.894531 365.632812 394.230469 421.621094 394.230469 421.621094 C 394.230469 421.621094 347.792969 419.453125 339.3125 401.246094 Z M 339.3125 401.246094 " fill-opacity="1" fill-rule="evenodd"/><path fill="#886bcb" d="M 391.308594 401.363281 L 391.171875 400.480469 C 384.695312 402.257812 371.675781 405.007812 354.660156 404.433594 C 354.261719 404.421875 353.929688 404.730469 353.917969 405.128906 C 353.902344 405.527344 354.214844 405.859375 354.613281 405.871094 C 371.667969 406.449219 384.753906 403.71875 391.394531 401.910156 Z M 389.265625 388.9375 C 389.304688 389.15625 389.34375 389.375 389.382812 389.59375 L 389.488281 390.210938 C 368.371094 395.378906 353.292969 394.304688 347.625 393.570312 C 348.082031 393.152344 348.550781 392.726562 349.03125 392.289062 C 355.347656 392.972656 369.667969 393.589844 389.242188 388.789062 Z M 387.746094 380.742188 C 387.785156 380.941406 387.828125 381.144531 387.867188 381.34375 L 387.921875 381.632812 C 382.617188 382.917969 370.65625 385.34375 357.121094 384.996094 C 357.648438 384.527344 358.179688 384.054688 358.710938 383.582031 C 371.5 383.714844 382.660156 381.433594 387.644531 380.21875 Z M 385.820312 372.0625 C 385.9375 372.511719 386.054688 372.980469 386.171875 373.464844 C 378.15625 374.65625 372.511719 374.488281 369.546875 374.222656 C 370.085938 373.769531 370.621094 373.324219 371.148438 372.894531 C 374.238281 373.0625 379.1875 373.035156 385.820312 372.0625 Z M 385.820312 372.0625 " fill-opacity="1" fill-rule="evenodd"/><g clip-path="url(#c1d12f6603)"><path fill="#f6dbc9" d="M 483.550781 435.789062 C 487.460938 432.328125 494.40625 424.792969 493.492188 415.5625 C 492.394531 404.464844 485.992188 394.941406 483.988281 387.855469 C 481.613281 379.441406 482.949219 370.953125 488.15625 364.300781 C 493.359375 357.652344 497.15625 357.074219 500.191406 358.691406 C 503.6875 360.554688 501.550781 366.503906 498.472656 372.457031 C 495.394531 378.414062 496.316406 386.917969 499.8125 393.851562 C 503.304688 400.78125 507.597656 412.710938 505.59375 424.089844 C 503.628906 435.25 498.257812 444.921875 492.054688 450.578125 C 492.484375 451.585938 492.875 452.582031 493.230469 453.550781 C 498.957031 469.230469 494.859375 489.746094 489.421875 506.222656 C 483.984375 522.695312 476.113281 537.257812 471.421875 537.878906 C 466.726562 538.496094 455.394531 537.652344 457.496094 533.007812 C 457.496094 533.007812 452.402344 534.054688 449.113281 532.269531 C 445.820312 530.488281 445.476562 529.214844 446.890625 526.179688 C 448.304688 523.148438 451.855469 510.675781 449.988281 507.484375 C 448.117188 504.292969 435.453125 494.558594 433.636719 479.042969 C 433.636719 479.042969 417.105469 477.578125 405.796875 485.574219 L 353.925781 496.984375 L 311.363281 518.355469 C 311.363281 518.355469 302.105469 518.109375 303.183594 511.398438 C 304.261719 504.6875 310.109375 498.15625 315.460938 489.46875 C 320.816406 480.78125 331.085938 463.011719 332.625 459.246094 C 332.625 459.246094 322.125 453.824219 320.070312 441.445312 C 318.34375 431.03125 324.757812 420.777344 324.757812 420.777344 C 324.757812 420.777344 321.023438 398.007812 326.507812 394.324219 C 329.496094 392.316406 343.152344 398.625 347.910156 402.742188 C 347.910156 402.742188 350.679688 401.316406 360.308594 401.609375 C 360.308594 401.609375 374.769531 385.863281 381.355469 386.582031 C 387.304688 387.230469 389.964844 413.976562 389.964844 413.976562 C 389.964844 413.976562 391.851562 416.121094 393.335938 419.035156 C 393.335938 419.035156 413.976562 405.785156 442.78125 410.667969 C 461.421875 413.828125 474.308594 424.3125 483.550781 435.789062 Z M 483.550781 435.789062 " fill-opacity="1" fill-rule="evenodd"/></g><path fill="#5c4340" d="M 425.933594 404.476562 C 422.773438 397.886719 420.390625 389.71875 419.003906 383.039062 C 416.757812 372.199219 416.921875 361.554688 412.667969 351.085938 C 410 344.511719 405.613281 339.515625 402.113281 333.484375 C 401.027344 331.613281 400.109375 329.640625 399.253906 327.65625 C 399.152344 327.421875 398.738281 326.296875 398.492188 325.546875 C 398.445312 325.394531 398.394531 325.230469 398.367188 325.125 C 398.378906 324.933594 398.316406 324.738281 398.171875 324.585938 C 398.003906 324.40625 397.832031 324.367188 397.726562 324.351562 C 397.523438 324.324219 397.351562 324.378906 397.203125 324.488281 C 397.09375 324.566406 396.882812 324.75 396.902344 325.132812 C 396.917969 325.441406 397.769531 327.855469 397.933594 328.226562 C 398.8125 330.265625 399.753906 332.285156 400.867188 334.207031 C 404.335938 340.183594 408.691406 345.117188 411.335938 351.628906 C 415.554688 362.015625 415.363281 372.578125 417.59375 383.332031 C 418.921875 389.738281 421.164062 397.488281 424.113281 403.972656 C 423.378906 403.472656 422.578125 403.148438 421.71875 403.160156 C 420.464844 403.179688 418.257812 404.238281 418.753906 406.371094 C 419.148438 408.078125 420.816406 408.972656 422.050781 409.398438 C 422.734375 409.636719 423.449219 409.832031 424.160156 409.953125 C 424.585938 410.023438 425.023438 410.0625 425.457031 410.070312 C 425.707031 410.074219 425.960938 410.066406 426.210938 410.054688 C 426.492188 410.042969 426.722656 410.015625 426.917969 409.976562 C 427.0625 410.121094 427.273438 410.203125 427.496094 410.183594 C 429.746094 409.960938 432.199219 409.699219 434.085938 407.589844 C 434.613281 407.003906 435.253906 405.910156 435.410156 404.921875 C 435.546875 404.070312 435.347656 403.300781 434.691406 402.796875 C 433.972656 402.246094 433.082031 402.246094 432.179688 402.609375 C 431.113281 403.042969 430.015625 404.015625 429.316406 404.773438 C 428.96875 405.148438 428.640625 405.566406 428.335938 406.003906 C 428.855469 397.484375 429.621094 388.84375 431.972656 380.570312 C 434.484375 371.726562 438.363281 362.898438 442.4375 354.738281 C 445.589844 348.421875 448.050781 341.796875 450.304688 335.117188 C 452.113281 329.746094 453.238281 324.207031 454.519531 318.691406 C 454.898438 317.070312 455.253906 315.441406 455.496094 313.792969 C 455.507812 313.707031 455.753906 311.792969 455.796875 311.464844 C 455.824219 311.410156 455.851562 311.351562 455.863281 311.289062 C 455.957031 310.898438 455.71875 310.511719 455.332031 310.417969 C 455.148438 310.375 454.648438 310.355469 454.445312 310.941406 C 454.304688 311.34375 454.089844 313.476562 454.074219 313.582031 C 453.835938 315.191406 453.488281 316.785156 453.121094 318.367188 C 451.851562 323.835938 450.738281 329.332031 448.941406 334.65625 C 446.710938 341.273438 444.273438 347.835938 441.148438 354.09375 C 437.035156 362.332031 433.125 371.246094 430.589844 380.175781 C 428.511719 387.484375 427.652344 395.078125 427.117188 402.625 C 425.476562 389.996094 427.578125 373.839844 429.109375 362.566406 C 430.738281 350.617188 428.425781 342.863281 425.414062 332.921875 C 422.617188 323.691406 421.347656 314.398438 421.550781 304.796875 C 421.609375 301.941406 421.710938 299.085938 421.835938 296.234375 C 421.886719 295.132812 421.945312 294.035156 421.996094 292.9375 C 422 292.871094 422.070312 291.445312 422.070312 291.445312 L 422.066406 291.449219 C 422.109375 291.109375 421.910156 290.78125 421.578125 290.671875 C 421.558594 290.667969 420.679688 290.597656 420.632812 291.351562 C 420.617188 291.589844 420.5625 292.800781 420.558594 292.871094 C 420.507812 293.96875 420.449219 295.070312 420.402344 296.167969 C 420.273438 299.035156 420.171875 301.898438 420.113281 304.765625 C 419.90625 314.519531 421.195312 323.960938 424.035156 333.339844 C 426.988281 343.074219 429.277344 350.671875 427.683594 362.371094 C 426.070312 374.253906 423.867188 391.484375 425.933594 404.476562 Z M 428.421875 408.640625 C 430.035156 408.457031 431.699219 408.101562 433.015625 406.628906 C 433.398438 406.203125 433.875 405.410156 433.992188 404.691406 C 434.039062 404.402344 434.046875 404.113281 433.820312 403.945312 C 433.503906 403.703125 433.113281 403.785156 432.71875 403.945312 C 431.839844 404.300781 430.949219 405.125 430.375 405.746094 C 430.007812 406.148438 429.664062 406.597656 429.351562 407.070312 C 429.140625 407.382812 428.957031 407.71875 428.765625 408.046875 C 428.636719 408.269531 428.523438 408.46875 428.421875 408.640625 Z M 426.417969 408.605469 C 426.1875 408.449219 425.960938 408.214844 425.757812 407.933594 C 425.503906 407.570312 425.273438 407.125 425.066406 406.867188 C 424.597656 406.289062 424.058594 405.695312 423.453125 405.25 C 422.933594 404.867188 422.363281 404.59375 421.738281 404.601562 C 421.394531 404.605469 420.90625 404.746094 420.539062 405.027344 C 420.25 405.25 420.046875 405.585938 420.152344 406.046875 C 420.429688 407.226562 421.671875 407.742188 422.523438 408.039062 C 423.132812 408.25 423.765625 408.421875 424.402344 408.53125 C 424.753906 408.59375 425.117188 408.625 425.480469 408.628906 C 425.703125 408.632812 425.929688 408.625 426.152344 408.617188 C 426.253906 408.613281 426.339844 408.609375 426.417969 408.605469 Z M 397.152344 325.601562 C 397.175781 325.621094 397.199219 325.640625 397.222656 325.660156 C 397.242188 325.675781 397.269531 325.691406 397.289062 325.703125 C 397.242188 325.675781 397.195312 325.640625 397.152344 325.601562 Z M 455.3125 311.824219 C 455.265625 311.835938 455.222656 311.839844 455.175781 311.839844 C 455.128906 311.839844 455.082031 311.835938 455.039062 311.828125 C 455.128906 311.847656 455.21875 311.847656 455.3125 311.824219 Z M 455.035156 311.828125 L 455 311.820312 C 455.007812 311.824219 455.023438 311.824219 455.035156 311.828125 Z M 421.144531 292.046875 C 421.328125 292.101562 421.515625 292.09375 421.707031 291.984375 C 421.621094 292.03125 421.527344 292.0625 421.429688 292.074219 C 421.335938 292.082031 421.238281 292.074219 421.144531 292.046875 L 421.128906 292.042969 C 421.132812 292.042969 421.140625 292.042969 421.144531 292.046875 Z M 422.035156 291.585938 C 421.976562 291.761719 421.859375 291.898438 421.710938 291.980469 L 421.71875 291.976562 C 421.785156 291.9375 421.953125 291.84375 422.035156 291.585938 Z M 422.035156 291.585938 " fill-opacity="1" fill-rule="evenodd"/><path fill="#ea7992" d="M 309.757812 513.507812 C 309.785156 502.738281 309.234375 483.085938 312.011719 480.144531 C 314.789062 477.207031 334.019531 477 346.097656 477.484375 C 358.179688 477.964844 370.5 476.535156 371.222656 483.867188 C 371.941406 491.199219 372.082031 516.164062 371.621094 525.679688 C 371.335938 531.492188 368.785156 533.511719 363.40625 533.945312 C 356.0625 534.539062 321 534.207031 314.417969 533.148438 C 309.71875 532.394531 309.722656 526.078125 309.757812 513.507812 Z M 309.757812 513.507812 " fill-opacity="1" fill-rule="evenodd"/><path fill="#eabea9" d="M 334.679688 461.007812 C 334.679688 461.007812 350.914062 469.261719 371.644531 464.566406 C 382.097656 462.199219 390.039062 456.503906 394.316406 448.808594 C 398.601562 441.097656 399.226562 431.367188 394.960938 420.902344 C 394.8125 420.53125 394.394531 420.355469 394.03125 420.511719 C 393.667969 420.664062 393.496094 421.085938 393.644531 421.457031 C 397.714844 431.445312 397.167969 440.738281 393.078125 448.097656 C 388.980469 455.46875 381.347656 460.886719 371.335938 463.15625 C 351.140625 467.726562 335.320312 459.714844 335.320312 459.714844 C 334.96875 459.535156 334.539062 459.679688 334.363281 460.039062 C 334.1875 460.394531 334.328125 460.828125 334.679688 461.007812 Z M 334.679688 461.007812 " fill-opacity="1" fill-rule="evenodd"/><path fill="#f6a45f" d="M 337.457031 478.703125 C 324.179688 476.292969 320.109375 467.914062 325.484375 464.734375 C 333.179688 460.183594 341.53125 475.757812 341.53125 475.757812 C 354.296875 454.203125 366.683594 464.664062 360.8125 471.515625 C 357.082031 475.867188 349.453125 479.054688 345.429688 479.089844 C 345.710938 483.804688 345.765625 491.566406 345.710938 499.953125 C 356.222656 500.042969 366.191406 500.253906 371.832031 500.675781 C 371.867188 503.625 371.886719 506.679688 371.886719 509.648438 L 345.621094 509.136719 C 345.484375 519.167969 345.253906 528.84375 345.117188 534.226562 C 342.644531 534.214844 340.09375 534.1875 337.558594 534.152344 C 337.214844 528.648438 337.125 518.941406 337.144531 508.972656 L 309.746094 508.433594 C 309.734375 505.765625 309.722656 502.863281 309.742188 499.96875 C 315.3125 499.925781 325.980469 499.863281 337.1875 499.902344 C 337.257812 491.140625 337.378906 483.128906 337.457031 478.703125 Z M 337.457031 478.703125 " fill-opacity="1" fill-rule="evenodd"/><path fill="#ea7992" d="M 331.085938 471.59375 C 331.085938 471.59375 339.140625 478.1875 341.292969 479.144531 C 341.511719 479.242188 341.765625 479.234375 341.976562 479.117188 C 341.976562 479.117188 348.402344 475.554688 352.59375 471.554688 C 352.914062 471.246094 352.933594 470.726562 352.640625 470.394531 C 352.34375 470.058594 351.84375 470.039062 351.519531 470.34375 C 348.035156 473.675781 342.953125 476.683594 341.582031 477.46875 C 339.113281 476.113281 332.070312 470.304688 332.070312 470.304688 C 331.726562 470.023438 331.230469 470.082031 330.957031 470.4375 C 330.6875 470.792969 330.742188 471.3125 331.085938 471.59375 Z M 331.085938 471.59375 " fill-opacity="1" fill-rule="evenodd"/><path fill="#f6dbc9" d="M 373.285156 486.941406 C 373.285156 486.941406 366.582031 501.238281 363.332031 507.34375 C 360.082031 513.445312 355.621094 516.070312 355.046875 519.492188 C 354.46875 522.914062 363.207031 527.371094 368.453125 527.015625 C 373.695312 526.660156 375.707031 521.246094 379.585938 515.996094 C 383.464844 510.742188 395.425781 493.054688 405.796875 485.574219 C 416.167969 478.097656 378.070312 477.914062 373.285156 486.941406 Z M 373.285156 486.941406 " fill-opacity="1" fill-rule="evenodd"/><path fill="#eabea9" d="M 435.46875 480.160156 C 435.46875 480.160156 439.902344 481.574219 443.117188 483.070312 C 444.394531 483.664062 445.480469 484.246094 445.933594 484.769531 C 447.589844 486.679688 451.042969 494.546875 459.664062 501.90625 C 463.753906 505.394531 464.753906 508.015625 464.121094 512.015625 C 462.542969 521.976562 457.707031 531.421875 457.707031 531.421875 C 457.523438 531.777344 457.664062 532.210938 458.015625 532.394531 C 458.371094 532.574219 458.804688 532.433594 458.984375 532.082031 C 458.984375 532.082031 463.929688 522.425781 465.542969 512.242188 C 466.253906 507.730469 465.207031 504.746094 460.597656 500.8125 C 452.058594 493.523438 448.660156 485.714844 447.023438 483.824219 C 446.484375 483.207031 445.234375 482.464844 443.722656 481.761719 C 440.433594 480.234375 435.90625 478.785156 435.90625 478.785156 C 435.527344 478.664062 435.125 478.875 435.003906 479.253906 C 434.882812 479.632812 435.089844 480.039062 435.46875 480.160156 Z M 435.46875 480.160156 " fill-opacity="1" fill-rule="evenodd"/><path fill="#eabea9" d="M 373.257812 488.554688 C 373.257812 488.554688 375.261719 485.09375 376.984375 477.808594 C 377.074219 477.421875 376.835938 477.035156 376.449219 476.941406 C 376.0625 476.851562 375.675781 477.089844 375.585938 477.476562 C 373.925781 484.496094 372.011719 487.832031 372.011719 487.832031 C 371.816406 488.175781 371.933594 488.617188 372.277344 488.816406 C 372.621094 489.015625 373.058594 488.898438 373.257812 488.554688 Z M 373.257812 488.554688 " fill-opacity="1" fill-rule="evenodd"/><path fill="#f19e92" d="M 330.6875 413.945312 C 329.960938 413.855469 330.152344 407.21875 330.347656 404.207031 C 330.539062 401.203125 331.417969 401.429688 334.398438 402.351562 C 337.382812 403.269531 341.53125 405.324219 341.21875 406.285156 C 341.074219 406.71875 338.480469 407.644531 335.890625 409.792969 C 332.65625 412.472656 331.535156 414.046875 330.6875 413.945312 Z M 330.6875 413.945312 " fill-opacity="1" fill-rule="evenodd"/><path fill="#f19e92" d="M 368.84375 403.636719 C 368.476562 403.015625 374.058594 398.226562 376.574219 396.53125 C 379.09375 394.839844 379.4375 395.664062 380.503906 398.5625 C 381.566406 401.460938 383.164062 408.859375 382.214844 409.203125 C 381.78125 409.359375 379.28125 407.402344 375.730469 405.972656 C 371.820312 404.398438 369.269531 404.363281 368.84375 403.636719 Z M 368.84375 403.636719 " fill-opacity="1" fill-rule="evenodd"/><path fill="#f19e92" d="M 328.507812 429.117188 C 330.53125 429.347656 332.0625 430.515625 331.925781 431.722656 C 331.789062 432.925781 330.03125 433.71875 328.007812 433.484375 C 325.984375 433.253906 324.453125 432.085938 324.589844 430.878906 C 324.730469 429.671875 326.484375 428.882812 328.507812 429.117188 Z M 328.507812 429.117188 " fill-opacity="1" fill-rule="evenodd"/><path fill="#f19e92" d="M 375.601562 431.015625 C 377.929688 431.015625 379.820312 432.152344 379.820312 433.554688 C 379.820312 434.957031 377.929688 436.09375 375.601562 436.09375 C 373.273438 436.09375 371.382812 434.957031 371.382812 433.554688 C 371.382812 432.152344 373.273438 431.015625 375.601562 431.015625 Z M 375.601562 431.015625 " fill-opacity="1" fill-rule="evenodd"/><path fill="#5c4340" d="M 428.535156 409.601562 C 428.613281 410.015625 428.679688 410.4375 428.742188 410.671875 C 429.28125 412.710938 429.726562 414.785156 430.101562 416.863281 C 431.128906 422.542969 431.925781 432.125 432.125 437.886719 C 432.425781 446.53125 432.226562 453.976562 431.171875 461.035156 C 431.148438 463.621094 431.085938 466.207031 430.988281 468.785156 C 430.863281 472.261719 430.421875 475.605469 429.46875 478.945312 C 428.996094 478.953125 428.492188 478.96875 427.960938 478.992188 C 427.984375 478.902344 428.007812 478.8125 428.03125 478.730469 C 428.949219 475.578125 429.390625 472.421875 429.535156 469.152344 C 428.6875 472.453125 427.609375 475.738281 426.269531 479.09375 C 425.75 479.132812 425.210938 479.179688 424.660156 479.234375 C 427.191406 473.039062 428.800781 467.121094 429.734375 460.902344 C 429.835938 450.203125 429.285156 439.464844 427.601562 428.976562 C 426.847656 424.289062 425.949219 418.722656 424.632812 414.160156 C 424.238281 412.792969 423.828125 411.417969 423.292969 410.097656 C 423.269531 410.046875 423.234375 409.976562 423.191406 409.890625 C 423.691406 409.847656 424.199219 409.804688 424.707031 409.769531 C 425.226562 411.070312 425.628906 412.417969 426.015625 413.761719 C 427.34375 418.378906 428.261719 424.003906 429.023438 428.746094 C 429.90625 434.238281 430.480469 439.800781 430.8125 445.390625 C 430.824219 442.996094 430.777344 440.519531 430.6875 437.933594 C 430.488281 432.230469 429.703125 422.742188 428.683594 417.121094 C 428.316406 415.078125 427.878906 413.042969 427.347656 411.039062 C 427.273438 410.746094 427.1875 410.167969 427.082031 409.667969 L 427.078125 409.640625 C 427.558594 409.625 428.042969 409.609375 428.535156 409.601562 Z M 428.535156 409.601562 " fill-opacity="1" fill-rule="evenodd"/><path fill="#5c4340" d="M 334.175781 429.28125 C 334.175781 429.28125 335.464844 428.363281 336.945312 428.859375 C 337.632812 429.09375 338.335938 429.628906 339.007812 430.621094 C 339.378906 431.171875 340.125 431.3125 340.675781 430.941406 C 341.222656 430.570312 341.367188 429.824219 340.996094 429.277344 C 339.945312 427.722656 338.785156 426.949219 337.710938 426.585938 C 335.078125 425.699219 332.789062 427.324219 332.789062 427.324219 C 332.25 427.707031 332.121094 428.457031 332.503906 428.996094 C 332.890625 429.539062 333.636719 429.664062 334.175781 429.28125 Z M 334.175781 429.28125 " fill-opacity="1" fill-rule="evenodd"/><path fill="#5c4340" d="M 362.601562 431.746094 C 362.601562 431.746094 365.132812 428.640625 369.425781 430.542969 C 370.03125 430.808594 370.738281 430.535156 371.007812 429.929688 C 371.273438 429.324219 371 428.613281 370.394531 428.347656 C 364.285156 425.640625 360.71875 430.257812 360.71875 430.257812 C 360.308594 430.777344 360.398438 431.53125 360.917969 431.945312 C 361.4375 432.355469 362.191406 432.265625 362.601562 431.746094 Z M 362.601562 431.746094 " fill-opacity="1" fill-rule="evenodd"/><path fill="#886bcb" d="M 392.960938 321.714844 C 378.945312 326.988281 362.074219 319.199219 354.398438 303.46875 C 346.324219 286.925781 351.457031 267.832031 365.847656 260.855469 C 380.242188 253.878906 398.484375 261.640625 406.554688 278.179688 C 413.816406 293.058594 410.394531 309.996094 399.164062 318.332031 C 400.714844 319.707031 402.75 321.695312 403.039062 322.898438 C 403.515625 324.882812 394.78125 328 393.363281 327.921875 C 392.414062 327.871094 392.679688 324.171875 392.960938 321.714844 Z M 392.960938 321.714844 " fill-opacity="1" fill-rule="evenodd"/><path fill="#f6dbc9" d="M 392.179688 275.898438 C 392.179688 275.898438 400.46875 284.074219 399.761719 294.933594 C 399.734375 295.332031 400.035156 295.671875 400.429688 295.699219 C 400.828125 295.726562 401.171875 295.425781 401.195312 295.027344 C 401.945312 283.535156 393.191406 274.875 393.191406 274.875 C 392.90625 274.59375 392.453125 274.597656 392.171875 274.878906 C 391.894531 275.164062 391.898438 275.621094 392.179688 275.898438 Z M 392.179688 275.898438 " fill-opacity="1" fill-rule="evenodd"/><path fill="#f6dbc9" d="M 400.132812 298.378906 C 400.613281 298.34375 401.023438 298.707031 401.058594 299.1875 C 401.089844 299.664062 400.726562 300.078125 400.25 300.113281 C 399.773438 300.144531 399.355469 299.78125 399.328125 299.304688 C 399.292969 298.824219 399.65625 298.410156 400.132812 298.378906 Z M 400.132812 298.378906 " fill-opacity="1" fill-rule="evenodd"/><path fill="#f6a45f" d="M 419.027344 286.578125 C 403.777344 284.683594 392.195312 269.039062 392.761719 250.414062 C 393.363281 230.824219 407.171875 215.308594 423.582031 215.78125 C 439.992188 216.253906 452.832031 232.542969 452.234375 252.128906 C 451.695312 269.742188 440.472656 284.066406 426.28125 286.429688 C 427.035156 288.488281 427.925781 291.363281 427.609375 292.640625 C 427.089844 294.75 417.671875 293.410156 416.417969 292.640625 C 415.582031 292.125 417.59375 288.761719 419.027344 286.578125 Z M 419.027344 286.578125 " fill-opacity="1" fill-rule="evenodd"/><path fill="#ea7992" d="M 453.175781 306.003906 C 438.53125 301.101562 430.085938 283.875 434.160156 266.28125 C 438.445312 247.78125 454.964844 235.835938 471.019531 239.625 C 487.078125 243.410156 496.632812 261.503906 492.351562 280.003906 C 488.496094 296.640625 474.75 307.976562 460.34375 307.335938 C 460.691406 309.449219 461.03125 312.363281 460.476562 313.515625 C 459.566406 315.414062 450.554688 312.222656 449.464844 311.238281 C 448.738281 310.578125 451.355469 307.789062 453.175781 306.003906 Z M 453.175781 306.003906 " fill-opacity="1" fill-rule="evenodd"/><path fill="#f6dbc9" d="M 482.550781 260.949219 C 482.550781 260.949219 485.9375 272.097656 480.140625 281.300781 C 479.929688 281.636719 480.027344 282.082031 480.363281 282.292969 C 480.699219 282.503906 481.144531 282.402344 481.355469 282.066406 C 487.492188 272.328125 483.929688 260.53125 483.929688 260.53125 C 483.8125 260.152344 483.410156 259.9375 483.03125 260.050781 C 482.652344 260.167969 482.4375 260.570312 482.550781 260.949219 Z M 482.550781 260.949219 " fill-opacity="1" fill-rule="evenodd"/><path fill="#f6dbc9" d="M 478.824219 284.503906 C 479.261719 284.703125 479.453125 285.21875 479.25 285.65625 C 479.050781 286.09375 478.535156 286.285156 478.101562 286.082031 C 477.664062 285.882812 477.472656 285.367188 477.675781 284.929688 C 477.871094 284.496094 478.390625 284.304688 478.824219 284.503906 Z M 478.824219 284.503906 " fill-opacity="1" fill-rule="evenodd"/><path fill="#f6dbc9" d="M 434.117188 231.1875 C 434.117188 231.1875 438.632812 238.320312 437.777344 246.632812 C 437.734375 247.027344 438.023438 247.382812 438.417969 247.425781 C 438.8125 247.464844 439.167969 247.175781 439.207031 246.78125 C 440.113281 237.972656 435.332031 230.417969 435.332031 230.417969 C 435.121094 230.082031 434.675781 229.980469 434.339844 230.195312 C 434.003906 230.40625 433.90625 230.855469 434.117188 231.1875 Z M 434.117188 231.1875 " fill-opacity="1" fill-rule="evenodd"/><path fill="#5c4340" d="M 340.824219 443.296875 C 340.824219 443.296875 342.367188 445.238281 345.394531 445.261719 C 347.003906 445.277344 348.347656 444.851562 349.375 443.816406 C 349.796875 443.398438 350.164062 442.871094 350.472656 442.21875 C 351.070312 443.808594 352.296875 445.472656 354.800781 446.089844 C 359.085938 447.144531 361.140625 444.65625 361.140625 444.65625 C 361.398438 444.355469 361.363281 443.898438 361.0625 443.640625 C 360.761719 443.382812 360.308594 443.414062 360.046875 443.71875 C 360.046875 443.71875 358.441406 445.5 355.144531 444.691406 C 350.941406 443.65625 351.363281 438.847656 351.363281 438.847656 C 351.394531 438.457031 351.109375 438.113281 350.722656 438.070312 C 350.332031 438.03125 349.980469 438.308594 349.933594 438.699219 C 349.6875 440.671875 349.167969 441.988281 348.359375 442.800781 C 347.601562 443.5625 346.59375 443.832031 345.40625 443.824219 C 343.125 443.804688 341.941406 442.390625 341.941406 442.390625 C 341.691406 442.082031 341.234375 442.035156 340.929688 442.285156 C 340.621094 442.535156 340.574219 442.988281 340.824219 443.296875 Z M 340.824219 443.296875 " fill-opacity="1" fill-rule="evenodd"/><path fill="#f19e92" d="M 351.023438 431.421875 C 354.28125 431.574219 356.84375 433.445312 356.742188 435.597656 C 356.640625 437.746094 353.914062 439.367188 350.65625 439.210938 C 347.394531 439.054688 344.832031 437.1875 344.933594 435.035156 C 345.035156 432.886719 347.765625 431.265625 351.023438 431.421875 Z M 351.023438 431.421875 " fill-opacity="1" fill-rule="evenodd"/><path fill="#5c4340" d="M 376.0625 441.738281 L 389.011719 440.082031 C 389.40625 440.03125 389.683594 439.667969 389.632812 439.273438 C 389.582031 438.882812 389.222656 438.601562 388.828125 438.652344 L 375.878906 440.308594 C 375.484375 440.359375 375.207031 440.71875 375.257812 441.113281 C 375.308594 441.507812 375.667969 441.789062 376.0625 441.738281 Z M 376.0625 441.738281 " fill-opacity="1" fill-rule="evenodd"/><path fill="#5c4340" d="M 375.382812 445.171875 L 387.242188 447.890625 C 387.628906 447.980469 388.015625 447.738281 388.105469 447.351562 C 388.191406 446.964844 387.953125 446.574219 387.5625 446.488281 L 375.703125 443.765625 C 375.316406 443.675781 374.929688 443.921875 374.84375 444.308594 C 374.753906 444.695312 374.996094 445.082031 375.382812 445.171875 Z M 375.382812 445.171875 " fill-opacity="1" fill-rule="evenodd"/><path fill="#5c4340" d="M 314.886719 435.003906 L 327.707031 438.539062 C 328.089844 438.644531 328.488281 438.417969 328.589844 438.035156 C 328.695312 437.652344 328.472656 437.257812 328.089844 437.148438 L 315.269531 433.613281 C 314.886719 433.511719 314.492188 433.734375 314.382812 434.117188 C 314.28125 434.5 314.503906 434.898438 314.886719 435.003906 Z M 314.886719 435.003906 " fill-opacity="1" fill-rule="evenodd"/><path fill="#5c4340" d="M 314.136719 443.285156 L 327.902344 441.96875 C 328.296875 441.933594 328.585938 441.578125 328.550781 441.183594 C 328.511719 440.789062 328.160156 440.496094 327.765625 440.535156 L 314 441.851562 C 313.601562 441.890625 313.3125 442.242188 313.351562 442.636719 C 313.390625 443.03125 313.742188 443.324219 314.136719 443.285156 Z M 314.136719 443.285156 " fill-opacity="1" fill-rule="evenodd"/></svg>